<?xml version="1.0" standalone="no"?><svg xmlns="http://www.w3.org/2000/svg" viewBox="0 0 1440 320"><path fill="#212529" fill-opacity="1" d="M0,160L30,170.7C60,181,120,203,180,186.7C240,171,300,117,360,101.3C420,85,480,107,540,128C600,149,660,171,720,170.7C780,171,840,149,900,117.3C960,85,1020,43,1080,37.3C1140,32,1200,64,1260,64C1320,64,1380,32,1410,16L1440,0L1440,320L1410,320C1380,320,1320,320,1260,320C1200,320,1140,320,1080,320C1020,320,960,320,900,320C840,320,780,320,720,320C660,320,600,320,540,320C480,320,420,320,360,320C300,320,240,320,180,320C120,320,60,320,30,320L0,320Z"></path></svg>